<svg width="322" height="817" viewBox="0 0 322 817" fill="none" xmlns="http://www.w3.org/2000/svg">
<path d="M18 33L97 3.8147e-06L162 76L127.5 141L35.5 118L18 33Z" fill="#E9F4FB"/>
<path d="M18 33L97 3.8147e-06L162 76L127.5 141L35.5 118L18 33Z" fill="#E9F4FB"/>
<path d="M183.5 57.5L233.5 0L302.5 33V110.5L201 142.5L183.5 57.5Z" fill="#E9F4FB"/>
<path d="M0.5 175.5L96 162.5L144.5 218.5L106 263L31 245.5L0.5 175.5Z" fill="#E9EDFB"/>
<path d="M0.5 175.5L96 162.5L144.5 218.5L106 263L31 245.5L0.5 175.5Z" fill="#E9EDFB"/>
<path d="M183.5 200L233.5 142.5L302.5 175.5V253L209.5 245.5L183.5 200Z" fill="#E9EDFB"/>
<path d="M18 318L75.5 299L162 361L117.5 395.5L35.5 403L18 318Z" fill="#FAE9FB"/>
<path d="M18 318L75.5 299L162 361L117.5 395.5L35.5 403L18 318Z" fill="#FAE9FB"/>
<path d="M183.5 340L233.5 282.5L302.5 315.5V403L211 388L183.5 340Z" fill="#FAE9FB"/>
<path d="M48.5 463L96 450L127.5 499V568.5L48.5 514.5V463Z" fill="#E9FBF2"/>
<path d="M48.5 463L96 450L127.5 499V568.5L48.5 514.5V463Z" fill="#E9FBF2"/>
<path d="M183.5 485L264 417L321.5 485L302.5 538H212.5L183.5 485Z" fill="#E9FBF2"/>
<path d="M18 594L97 561L140.5 628L114.5 691.523L35.5 679L18 594Z" fill="#FBF3E9"/>
<path d="M18 594L97 561L140.5 628L114.5 691.523L35.5 679L18 594Z" fill="#FBF3E9"/>
<path d="M205.307 613L250.807 570.5L319.807 603.5L288.807 691.523L195.307 679L205.307 613Z" fill="#FBF3E9"/>
<path d="M18 745.5L97 712.5L162 788.5L127.5 853.5L35.5 830.5L18 745.5Z" fill="#FBE9E9"/>
<path d="M18 745.5L97 712.5L162 788.5L127.5 853.5L35.5 830.5L18 745.5Z" fill="#FBE9E9"/>
<path d="M183.5 770L233.5 712.5L302.5 745.5V823L201 855L183.5 770Z" fill="#FBE9E9"/>
</svg>
