<svg width="325" height="818" viewBox="0 0 325 818" fill="none" xmlns="http://www.w3.org/2000/svg">
<path d="M16.8483 40L95.8483 7L160.848 83L126.348 148L34.3483 125L16.8483 40Z
M16.8483 40L95.8483 7L160.848 83L126.348 148L34.3483 125L16.8483 40Z
M182.348 64.5L232.348 7L301.348 40V117.5L199.848 149.5L182.348 64.5Z
M8 172.5L103.5 159.5L152 215.5L113.5 260L38.5 242.5L8 172.5Z
M8 172.5L103.5 159.5L152 215.5L113.5 260L38.5 242.5L8 172.5Z
M182.348 207L232.348 149.5L301.348 182.5V260L208.348 252.5L182.348 207Z
M16.8483 325L74.3483 306L160.848 368L116.348 402.5L34.3483 410L16.8483 325Z
M16.8483 325L74.3483 306L160.848 368L116.348 402.5L34.3483 410L16.8483 325Z
M182.348 347L232.348 289.5L301.348 322.5V410L209.848 395L182.348 347Z
M35.9591 441.589L84.576 433.737L110.661 485.822L103.237 554.924L30.4576 492.794L35.9591 441.589Z
M35.9591 441.589L84.576 433.737L110.661 485.822L103.237 554.924L30.4576 492.794L35.9591 441.589Z
M167.836 477.884L255.14 418.873L305.047 492.626L280.494 543.293L191.009 533.679L167.836 477.884Z
M16.8483 601L95.8483 568L139.348 635L113.348 698.523L34.3483 686L16.8483 601Z
M16.8483 601L95.8483 568L139.348 635L113.348 698.523L34.3483 686L16.8483 601Z
M204.155 620L249.655 577.5L318.655 610.5L287.655 698.523L194.155 686L204.155 620Z
M16.8483 752.5L95.8483 719.5L160.848 795.5L126.348 860.5L34.3483 837.5L16.8483 752.5Z
M16.8483 752.5L95.8483 719.5L160.848 795.5L126.348 860.5L34.3483 837.5L16.8483 752.5Z
M182.348 777L232.348 719.5L301.348 752.5V830L199.848 862L182.348 777Z" stroke="#FBE9E9" stroke-width="10"/>
<path d="" stroke="#FBE9E9" stroke-width="10"/>
<path d="" stroke="#FBE9E9" stroke-width="10"/>
<path d="" stroke="#FBE9E9" stroke-width="10"/>
<path d="" stroke="#FBE9E9" stroke-width="10"/>
<path d="" stroke="#FBE9E9" stroke-width="10"/>
<path d="" stroke="#FBE9E9" stroke-width="10"/>
<path d="" stroke="#FBE9E9" stroke-width="10"/>
<path d="" stroke="#FBE9E9" stroke-width="10"/>
<path d="" stroke="#FBE9E9" stroke-width="10"/>
<path d="" stroke="#FBE9E9" stroke-width="10"/>
<path d="" stroke="#FBE9E9" stroke-width="10"/>
<path d="" stroke="#FBE9E9" stroke-width="10"/>
<path d="" stroke="#FBE9E9" stroke-width="10"/>
<path d="" stroke="#FBE9E9" stroke-width="10"/>
<path d="" stroke="#FBE9E9" stroke-width="10"/>
<path d="" stroke="#FBE9E9" stroke-width="10"/>
<path d="" stroke="#FBE9E9" stroke-width="10"/>
</svg>
